# xmcd
#
# Track frame offsets: 
#        150
#        11974
#        26803
#        52317
#        66555
#        80428
#        92727
#        110142
#        125347
#        141000
#        157118
#        171745
#        189359
#        204351
#        223425
#        247245
#        260529
#        281241
#        296045
#
# Disc length: 4269 seconds
#
# Revision: 0
# Processed by: cddbd v1.5.2PL0 Copyright (c) Steve Scherf et al.
# Submitted via: ExactAudioCopy v1.0b1
#
DISCID=4510ab13
DTITLE=The U and I Band - At Home
DYEAR=1900
DGENRE=Country
TTITLE0=Sally Don't You Greive
TTITLE1=After You've Gone
TTITLE2=Money
TTITLE3=Herring Run
TTITLE4=Cripple Creek
TTITLE5=Soldier's Joy
TTITLE6=Vigillante Man
TTITLE7=Mother Earth
TTITLE8=Sweet Georgia Brown
TTITLE9=Someday My Prince Will Come
TTITLE10=Corrina, Corrina
TTITLE11=GDFC
TTITLE12=Sitting On Top of the World
TTITLE13=Eagle
TTITLE14=C.C. Rider
TTITLE15=Adelita
TTITLE16=Honey in the Rock
TTITLE17=Love Song
TTITLE18=The Cuckoo
EXTD=
EXTT0=
EXTT1=
EXTT2=
EXTT3=
EXTT4=
EXTT5=
EXTT6=
EXTT7=
EXTT8=
EXTT9=
EXTT10=
EXTT11=
EXTT12=
EXTT13=
EXTT14=
EXTT15=
EXTT16=
EXTT17=
EXTT18=
PLAYORDER=
